<mxfile host="Electron" agent="Mozilla/5.0 (Macintosh; Intel Mac OS X 10_15_7) AppleWebKit/537.36 (KHTML, like Gecko) draw.io/28.0.4 Chrome/138.0.7204.97 Electron/37.2.1 Safari/537.36" version="28.0.4">
  <diagram name="Page-1" id="D71pviS7cvpN4mwJ0eyd">
    <mxGraphModel dx="976" dy="752" grid="1" gridSize="10" guides="1" tooltips="1" connect="1" arrows="1" fold="1" page="1" pageScale="1" pageWidth="827" pageHeight="1169" math="0" shadow="0">
      <root>
        <mxCell id="0" />
        <mxCell id="1" parent="0" />
        <mxCell id="_Qt5D_Nw62uMa89O4eSB-14" value="&lt;font style=&quot;&quot;&gt;&lt;b style=&quot;font-size: 22px;&quot;&gt;Data Mart &lt;/b&gt;&lt;font style=&quot;font-size: 18px;&quot;&gt;(Star Schema)&lt;/font&gt;&lt;/font&gt;" style="text;html=1;align=center;verticalAlign=middle;resizable=0;points=[];autosize=1;strokeColor=none;fillColor=none;" vertex="1" parent="1">
          <mxGeometry x="330" y="110" width="250" height="40" as="geometry" />
        </mxCell>
        <mxCell id="_Qt5D_Nw62uMa89O4eSB-16" value="&lt;div&gt;last_name&lt;/div&gt;" style="shape=partialRectangle;connectable=0;fillColor=none;top=0;left=0;bottom=0;right=0;align=left;spacingLeft=6;overflow=hidden;whiteSpace=wrap;html=1;fontStyle=1" vertex="1" parent="1">
          <mxGeometry x="110" y="345" width="150" height="30" as="geometry">
            <mxRectangle width="150" height="30" as="alternateBounds" />
          </mxGeometry>
        </mxCell>
        <mxCell id="_Qt5D_Nw62uMa89O4eSB-17" value="&lt;div&gt;country&lt;/div&gt;" style="shape=partialRectangle;connectable=0;fillColor=none;top=0;left=0;bottom=0;right=0;align=left;spacingLeft=6;overflow=hidden;whiteSpace=wrap;html=1;fontStyle=1" vertex="1" parent="1">
          <mxGeometry x="110" y="375" width="150" height="30" as="geometry">
            <mxRectangle width="150" height="30" as="alternateBounds" />
          </mxGeometry>
        </mxCell>
        <mxCell id="_Qt5D_Nw62uMa89O4eSB-1" value="&lt;font style=&quot;color: rgb(26, 26, 26);&quot;&gt;gold.dim_customers&lt;/font&gt;" style="shape=table;startSize=30;container=1;collapsible=1;childLayout=tableLayout;fixedRows=1;rowLines=0;fontStyle=1;align=center;resizeLast=1;html=1;fillColor=#d5e8d4;strokeColor=#82b366;resizeLastRow=1;miterlimit=10;rounded=1;" vertex="1" parent="1">
          <mxGeometry x="80" y="195" width="180" height="340" as="geometry" />
        </mxCell>
        <mxCell id="_Qt5D_Nw62uMa89O4eSB-2" value="" style="shape=tableRow;horizontal=0;startSize=0;swimlaneHead=0;swimlaneBody=0;fillColor=none;collapsible=0;dropTarget=0;points=[[0,0.5],[1,0.5]];portConstraint=eastwest;top=0;left=0;right=0;bottom=1;resizeLastRow=1;miterlimit=10;fontStyle=1" vertex="1" parent="_Qt5D_Nw62uMa89O4eSB-1">
          <mxGeometry y="30" width="180" height="30" as="geometry" />
        </mxCell>
        <mxCell id="_Qt5D_Nw62uMa89O4eSB-3" value="PK" style="shape=partialRectangle;connectable=0;fillColor=none;top=0;left=0;bottom=0;right=0;fontStyle=1;overflow=hidden;whiteSpace=wrap;html=1;resizeLastRow=1;miterlimit=10;" vertex="1" parent="_Qt5D_Nw62uMa89O4eSB-2">
          <mxGeometry width="30" height="30" as="geometry">
            <mxRectangle width="30" height="30" as="alternateBounds" />
          </mxGeometry>
        </mxCell>
        <mxCell id="_Qt5D_Nw62uMa89O4eSB-4" value="customer_key" style="shape=partialRectangle;connectable=0;fillColor=none;top=0;left=0;bottom=0;right=0;align=left;spacingLeft=6;fontStyle=5;overflow=hidden;whiteSpace=wrap;html=1;resizeLastRow=1;miterlimit=10;" vertex="1" parent="_Qt5D_Nw62uMa89O4eSB-2">
          <mxGeometry x="30" width="150" height="30" as="geometry">
            <mxRectangle width="150" height="30" as="alternateBounds" />
          </mxGeometry>
        </mxCell>
        <mxCell id="_Qt5D_Nw62uMa89O4eSB-5" value="" style="shape=tableRow;horizontal=0;startSize=0;swimlaneHead=0;swimlaneBody=0;fillColor=none;collapsible=0;dropTarget=0;points=[[0,0.5],[1,0.5]];portConstraint=eastwest;top=0;left=0;right=0;bottom=0;resizeLastRow=1;miterlimit=10;fontStyle=1" vertex="1" parent="_Qt5D_Nw62uMa89O4eSB-1">
          <mxGeometry y="60" width="180" height="30" as="geometry" />
        </mxCell>
        <mxCell id="_Qt5D_Nw62uMa89O4eSB-6" value="" style="shape=partialRectangle;connectable=0;fillColor=none;top=0;left=0;bottom=0;right=0;editable=1;overflow=hidden;whiteSpace=wrap;html=1;resizeLastRow=1;miterlimit=10;fontStyle=1" vertex="1" parent="_Qt5D_Nw62uMa89O4eSB-5">
          <mxGeometry width="30" height="30" as="geometry">
            <mxRectangle width="30" height="30" as="alternateBounds" />
          </mxGeometry>
        </mxCell>
        <mxCell id="_Qt5D_Nw62uMa89O4eSB-7" value="customer_id" style="shape=partialRectangle;connectable=0;fillColor=none;top=0;left=0;bottom=0;right=0;align=left;spacingLeft=6;overflow=hidden;whiteSpace=wrap;html=1;resizeLastRow=1;miterlimit=10;fontStyle=1" vertex="1" parent="_Qt5D_Nw62uMa89O4eSB-5">
          <mxGeometry x="30" width="150" height="30" as="geometry">
            <mxRectangle width="150" height="30" as="alternateBounds" />
          </mxGeometry>
        </mxCell>
        <mxCell id="_Qt5D_Nw62uMa89O4eSB-8" value="" style="shape=tableRow;horizontal=0;startSize=0;swimlaneHead=0;swimlaneBody=0;fillColor=none;collapsible=0;dropTarget=0;points=[[0,0.5],[1,0.5]];portConstraint=eastwest;top=0;left=0;right=0;bottom=0;resizeLastRow=1;miterlimit=10;fontStyle=1" vertex="1" parent="_Qt5D_Nw62uMa89O4eSB-1">
          <mxGeometry y="90" width="180" height="30" as="geometry" />
        </mxCell>
        <mxCell id="_Qt5D_Nw62uMa89O4eSB-9" value="" style="shape=partialRectangle;connectable=0;fillColor=none;top=0;left=0;bottom=0;right=0;editable=1;overflow=hidden;whiteSpace=wrap;html=1;resizeLastRow=1;miterlimit=10;fontStyle=1" vertex="1" parent="_Qt5D_Nw62uMa89O4eSB-8">
          <mxGeometry width="30" height="30" as="geometry">
            <mxRectangle width="30" height="30" as="alternateBounds" />
          </mxGeometry>
        </mxCell>
        <mxCell id="_Qt5D_Nw62uMa89O4eSB-10" value="customer_number" style="shape=partialRectangle;connectable=0;fillColor=none;top=0;left=0;bottom=0;right=0;align=left;spacingLeft=6;overflow=hidden;whiteSpace=wrap;html=1;resizeLastRow=1;miterlimit=10;fontStyle=1" vertex="1" parent="_Qt5D_Nw62uMa89O4eSB-8">
          <mxGeometry x="30" width="150" height="30" as="geometry">
            <mxRectangle width="150" height="30" as="alternateBounds" />
          </mxGeometry>
        </mxCell>
        <mxCell id="_Qt5D_Nw62uMa89O4eSB-11" value="" style="shape=tableRow;horizontal=0;startSize=0;swimlaneHead=0;swimlaneBody=0;fillColor=none;collapsible=0;dropTarget=0;points=[[0,0.5],[1,0.5]];portConstraint=eastwest;top=0;left=0;right=0;bottom=0;resizeLastRow=1;miterlimit=10;fontStyle=1" vertex="1" parent="_Qt5D_Nw62uMa89O4eSB-1">
          <mxGeometry y="120" width="180" height="220" as="geometry" />
        </mxCell>
        <mxCell id="_Qt5D_Nw62uMa89O4eSB-12" value="" style="shape=partialRectangle;connectable=0;fillColor=none;top=0;left=0;bottom=0;right=0;editable=1;overflow=hidden;whiteSpace=wrap;html=1;resizeLastRow=1;miterlimit=10;fontStyle=1" vertex="1" parent="_Qt5D_Nw62uMa89O4eSB-11">
          <mxGeometry width="30" height="220" as="geometry">
            <mxRectangle width="30" height="220" as="alternateBounds" />
          </mxGeometry>
        </mxCell>
        <mxCell id="_Qt5D_Nw62uMa89O4eSB-13" value="" style="shape=partialRectangle;connectable=0;fillColor=none;top=0;left=0;bottom=0;right=0;align=left;spacingLeft=6;overflow=hidden;whiteSpace=wrap;html=1;resizeLastRow=1;miterlimit=10;fontStyle=1" vertex="1" parent="_Qt5D_Nw62uMa89O4eSB-11">
          <mxGeometry x="30" width="150" height="220" as="geometry">
            <mxRectangle width="150" height="220" as="alternateBounds" />
          </mxGeometry>
        </mxCell>
        <mxCell id="_Qt5D_Nw62uMa89O4eSB-18" value="&lt;div&gt;marital_status&lt;/div&gt;" style="shape=partialRectangle;connectable=0;fillColor=none;top=0;left=0;bottom=0;right=0;align=left;spacingLeft=6;overflow=hidden;whiteSpace=wrap;html=1;fontStyle=1" vertex="1" parent="1">
          <mxGeometry x="110" y="405" width="150" height="30" as="geometry">
            <mxRectangle width="150" height="30" as="alternateBounds" />
          </mxGeometry>
        </mxCell>
        <mxCell id="_Qt5D_Nw62uMa89O4eSB-19" value="&lt;div&gt;gender&lt;/div&gt;" style="shape=partialRectangle;connectable=0;fillColor=none;top=0;left=0;bottom=0;right=0;align=left;spacingLeft=6;overflow=hidden;whiteSpace=wrap;html=1;fontStyle=1" vertex="1" parent="1">
          <mxGeometry x="110" y="435" width="150" height="30" as="geometry">
            <mxRectangle width="150" height="30" as="alternateBounds" />
          </mxGeometry>
        </mxCell>
        <mxCell id="_Qt5D_Nw62uMa89O4eSB-20" value="&lt;div&gt;birthdate&lt;/div&gt;" style="shape=partialRectangle;connectable=0;fillColor=none;top=0;left=0;bottom=0;right=0;align=left;spacingLeft=6;overflow=hidden;whiteSpace=wrap;html=1;fontStyle=1" vertex="1" parent="1">
          <mxGeometry x="110" y="465" width="150" height="30" as="geometry">
            <mxRectangle width="150" height="30" as="alternateBounds" />
          </mxGeometry>
        </mxCell>
        <mxCell id="_Qt5D_Nw62uMa89O4eSB-21" value="&lt;div&gt;create_date&lt;/div&gt;" style="shape=partialRectangle;connectable=0;fillColor=none;top=0;left=0;bottom=0;right=0;align=left;spacingLeft=6;overflow=hidden;whiteSpace=wrap;html=1;fontStyle=1" vertex="1" parent="1">
          <mxGeometry x="110" y="495" width="150" height="30" as="geometry">
            <mxRectangle width="150" height="30" as="alternateBounds" />
          </mxGeometry>
        </mxCell>
        <mxCell id="_Qt5D_Nw62uMa89O4eSB-27" value="&lt;div&gt;first_name&lt;/div&gt;" style="shape=partialRectangle;connectable=0;fillColor=none;top=0;left=0;bottom=0;right=0;align=left;spacingLeft=6;overflow=hidden;whiteSpace=wrap;html=1;fontStyle=1" vertex="1" parent="1">
          <mxGeometry x="110" y="315" width="150" height="30" as="geometry">
            <mxRectangle width="150" height="30" as="alternateBounds" />
          </mxGeometry>
        </mxCell>
        <mxCell id="_Qt5D_Nw62uMa89O4eSB-28" value="&lt;div&gt;category_id&lt;/div&gt;" style="shape=partialRectangle;connectable=0;fillColor=none;top=0;left=0;bottom=0;right=0;align=left;spacingLeft=6;overflow=hidden;whiteSpace=wrap;html=1;fontStyle=1" vertex="1" parent="1">
          <mxGeometry x="640" y="330" width="150" height="30" as="geometry">
            <mxRectangle width="150" height="30" as="alternateBounds" />
          </mxGeometry>
        </mxCell>
        <mxCell id="_Qt5D_Nw62uMa89O4eSB-29" value="&lt;div&gt;category&lt;/div&gt;" style="shape=partialRectangle;connectable=0;fillColor=none;top=0;left=0;bottom=0;right=0;align=left;spacingLeft=6;overflow=hidden;whiteSpace=wrap;html=1;fontStyle=1" vertex="1" parent="1">
          <mxGeometry x="640" y="360" width="150" height="30" as="geometry">
            <mxRectangle width="150" height="30" as="alternateBounds" />
          </mxGeometry>
        </mxCell>
        <mxCell id="_Qt5D_Nw62uMa89O4eSB-43" value="&lt;div&gt;subcategory&lt;/div&gt;" style="shape=partialRectangle;connectable=0;fillColor=none;top=0;left=0;bottom=0;right=0;align=left;spacingLeft=6;overflow=hidden;whiteSpace=wrap;html=1;fontStyle=1" vertex="1" parent="1">
          <mxGeometry x="640" y="390" width="150" height="30" as="geometry">
            <mxRectangle width="150" height="30" as="alternateBounds" />
          </mxGeometry>
        </mxCell>
        <mxCell id="_Qt5D_Nw62uMa89O4eSB-44" value="&lt;div&gt;maintenance&lt;/div&gt;" style="shape=partialRectangle;connectable=0;fillColor=none;top=0;left=0;bottom=0;right=0;align=left;spacingLeft=6;overflow=hidden;whiteSpace=wrap;html=1;fontStyle=1" vertex="1" parent="1">
          <mxGeometry x="640" y="420" width="150" height="30" as="geometry">
            <mxRectangle width="150" height="30" as="alternateBounds" />
          </mxGeometry>
        </mxCell>
        <mxCell id="_Qt5D_Nw62uMa89O4eSB-45" value="&lt;div&gt;product line&lt;/div&gt;" style="shape=partialRectangle;connectable=0;fillColor=none;top=0;left=0;bottom=0;right=0;align=left;spacingLeft=6;overflow=hidden;whiteSpace=wrap;html=1;fontStyle=1" vertex="1" parent="1">
          <mxGeometry x="640" y="480" width="150" height="30" as="geometry">
            <mxRectangle width="150" height="30" as="alternateBounds" />
          </mxGeometry>
        </mxCell>
        <mxCell id="_Qt5D_Nw62uMa89O4eSB-46" value="&lt;div&gt;start_date&lt;/div&gt;" style="shape=partialRectangle;connectable=0;fillColor=none;top=0;left=0;bottom=0;right=0;align=left;spacingLeft=6;overflow=hidden;whiteSpace=wrap;html=1;fontStyle=1" vertex="1" parent="1">
          <mxGeometry x="640" y="510" width="150" height="30" as="geometry">
            <mxRectangle width="150" height="30" as="alternateBounds" />
          </mxGeometry>
        </mxCell>
        <mxCell id="_Qt5D_Nw62uMa89O4eSB-47" value="&lt;div&gt;product_name&lt;/div&gt;" style="shape=partialRectangle;connectable=0;fillColor=none;top=0;left=0;bottom=0;right=0;align=left;spacingLeft=6;overflow=hidden;whiteSpace=wrap;html=1;fontStyle=1" vertex="1" parent="1">
          <mxGeometry x="640" y="300" width="150" height="30" as="geometry">
            <mxRectangle width="150" height="30" as="alternateBounds" />
          </mxGeometry>
        </mxCell>
        <mxCell id="_Qt5D_Nw62uMa89O4eSB-30" value="&lt;font style=&quot;color: rgb(26, 26, 26);&quot;&gt;gold.dim_products&lt;/font&gt;" style="shape=table;startSize=30;container=1;collapsible=1;childLayout=tableLayout;fixedRows=1;rowLines=0;fontStyle=1;align=center;resizeLast=1;html=1;fillColor=#d5e8d4;strokeColor=#82b366;resizeLastRow=1;miterlimit=10;rounded=1;" vertex="1" parent="1">
          <mxGeometry x="610" y="180" width="180" height="370" as="geometry" />
        </mxCell>
        <mxCell id="_Qt5D_Nw62uMa89O4eSB-31" value="" style="shape=tableRow;horizontal=0;startSize=0;swimlaneHead=0;swimlaneBody=0;fillColor=none;collapsible=0;dropTarget=0;points=[[0,0.5],[1,0.5]];portConstraint=eastwest;top=0;left=0;right=0;bottom=1;resizeLastRow=1;miterlimit=10;fontStyle=1" vertex="1" parent="_Qt5D_Nw62uMa89O4eSB-30">
          <mxGeometry y="30" width="180" height="30" as="geometry" />
        </mxCell>
        <mxCell id="_Qt5D_Nw62uMa89O4eSB-32" value="PK" style="shape=partialRectangle;connectable=0;fillColor=none;top=0;left=0;bottom=0;right=0;fontStyle=1;overflow=hidden;whiteSpace=wrap;html=1;resizeLastRow=1;miterlimit=10;" vertex="1" parent="_Qt5D_Nw62uMa89O4eSB-31">
          <mxGeometry width="30" height="30" as="geometry">
            <mxRectangle width="30" height="30" as="alternateBounds" />
          </mxGeometry>
        </mxCell>
        <mxCell id="_Qt5D_Nw62uMa89O4eSB-33" value="product_key" style="shape=partialRectangle;connectable=0;fillColor=none;top=0;left=0;bottom=0;right=0;align=left;spacingLeft=6;fontStyle=5;overflow=hidden;whiteSpace=wrap;html=1;resizeLastRow=1;miterlimit=10;" vertex="1" parent="_Qt5D_Nw62uMa89O4eSB-31">
          <mxGeometry x="30" width="150" height="30" as="geometry">
            <mxRectangle width="150" height="30" as="alternateBounds" />
          </mxGeometry>
        </mxCell>
        <mxCell id="_Qt5D_Nw62uMa89O4eSB-34" value="" style="shape=tableRow;horizontal=0;startSize=0;swimlaneHead=0;swimlaneBody=0;fillColor=none;collapsible=0;dropTarget=0;points=[[0,0.5],[1,0.5]];portConstraint=eastwest;top=0;left=0;right=0;bottom=0;resizeLastRow=1;miterlimit=10;fontStyle=1" vertex="1" parent="_Qt5D_Nw62uMa89O4eSB-30">
          <mxGeometry y="60" width="180" height="30" as="geometry" />
        </mxCell>
        <mxCell id="_Qt5D_Nw62uMa89O4eSB-35" value="" style="shape=partialRectangle;connectable=0;fillColor=none;top=0;left=0;bottom=0;right=0;editable=1;overflow=hidden;whiteSpace=wrap;html=1;resizeLastRow=1;miterlimit=10;fontStyle=1" vertex="1" parent="_Qt5D_Nw62uMa89O4eSB-34">
          <mxGeometry width="30" height="30" as="geometry">
            <mxRectangle width="30" height="30" as="alternateBounds" />
          </mxGeometry>
        </mxCell>
        <mxCell id="_Qt5D_Nw62uMa89O4eSB-36" value="product_id" style="shape=partialRectangle;connectable=0;fillColor=none;top=0;left=0;bottom=0;right=0;align=left;spacingLeft=6;overflow=hidden;whiteSpace=wrap;html=1;resizeLastRow=1;miterlimit=10;fontStyle=1" vertex="1" parent="_Qt5D_Nw62uMa89O4eSB-34">
          <mxGeometry x="30" width="150" height="30" as="geometry">
            <mxRectangle width="150" height="30" as="alternateBounds" />
          </mxGeometry>
        </mxCell>
        <mxCell id="_Qt5D_Nw62uMa89O4eSB-37" value="" style="shape=tableRow;horizontal=0;startSize=0;swimlaneHead=0;swimlaneBody=0;fillColor=none;collapsible=0;dropTarget=0;points=[[0,0.5],[1,0.5]];portConstraint=eastwest;top=0;left=0;right=0;bottom=0;resizeLastRow=1;miterlimit=10;fontStyle=1" vertex="1" parent="_Qt5D_Nw62uMa89O4eSB-30">
          <mxGeometry y="90" width="180" height="30" as="geometry" />
        </mxCell>
        <mxCell id="_Qt5D_Nw62uMa89O4eSB-38" value="" style="shape=partialRectangle;connectable=0;fillColor=none;top=0;left=0;bottom=0;right=0;editable=1;overflow=hidden;whiteSpace=wrap;html=1;resizeLastRow=1;miterlimit=10;fontStyle=1" vertex="1" parent="_Qt5D_Nw62uMa89O4eSB-37">
          <mxGeometry width="30" height="30" as="geometry">
            <mxRectangle width="30" height="30" as="alternateBounds" />
          </mxGeometry>
        </mxCell>
        <mxCell id="_Qt5D_Nw62uMa89O4eSB-39" value="product_number" style="shape=partialRectangle;connectable=0;fillColor=none;top=0;left=0;bottom=0;right=0;align=left;spacingLeft=6;overflow=hidden;whiteSpace=wrap;html=1;resizeLastRow=1;miterlimit=10;fontStyle=1" vertex="1" parent="_Qt5D_Nw62uMa89O4eSB-37">
          <mxGeometry x="30" width="150" height="30" as="geometry">
            <mxRectangle width="150" height="30" as="alternateBounds" />
          </mxGeometry>
        </mxCell>
        <mxCell id="_Qt5D_Nw62uMa89O4eSB-40" value="" style="shape=tableRow;horizontal=0;startSize=0;swimlaneHead=0;swimlaneBody=0;fillColor=none;collapsible=0;dropTarget=0;points=[[0,0.5],[1,0.5]];portConstraint=eastwest;top=0;left=0;right=0;bottom=0;resizeLastRow=1;miterlimit=10;fontStyle=1" vertex="1" parent="_Qt5D_Nw62uMa89O4eSB-30">
          <mxGeometry y="120" width="180" height="250" as="geometry" />
        </mxCell>
        <mxCell id="_Qt5D_Nw62uMa89O4eSB-41" value="" style="shape=partialRectangle;connectable=0;fillColor=none;top=0;left=0;bottom=0;right=0;editable=1;overflow=hidden;whiteSpace=wrap;html=1;resizeLastRow=1;miterlimit=10;fontStyle=1" vertex="1" parent="_Qt5D_Nw62uMa89O4eSB-40">
          <mxGeometry width="30" height="250" as="geometry">
            <mxRectangle width="30" height="250" as="alternateBounds" />
          </mxGeometry>
        </mxCell>
        <mxCell id="_Qt5D_Nw62uMa89O4eSB-42" value="" style="shape=partialRectangle;connectable=0;fillColor=none;top=0;left=0;bottom=0;right=0;align=left;spacingLeft=6;overflow=hidden;whiteSpace=wrap;html=1;resizeLastRow=1;miterlimit=10;allowArrows=0;fontStyle=1" vertex="1" parent="_Qt5D_Nw62uMa89O4eSB-40">
          <mxGeometry x="30" width="150" height="250" as="geometry">
            <mxRectangle width="150" height="250" as="alternateBounds" />
          </mxGeometry>
        </mxCell>
        <mxCell id="_Qt5D_Nw62uMa89O4eSB-48" value="&lt;div&gt;cost&lt;/div&gt;" style="shape=partialRectangle;connectable=0;fillColor=none;top=0;left=0;bottom=0;right=0;align=left;spacingLeft=6;overflow=hidden;whiteSpace=wrap;html=1;fontStyle=1" vertex="1" parent="1">
          <mxGeometry x="640" y="450" width="150" height="30" as="geometry">
            <mxRectangle width="150" height="30" as="alternateBounds" />
          </mxGeometry>
        </mxCell>
        <mxCell id="_Qt5D_Nw62uMa89O4eSB-49" value="&lt;div&gt;shipping_date&lt;/div&gt;" style="shape=partialRectangle;connectable=0;fillColor=none;top=0;left=0;bottom=0;right=0;align=left;spacingLeft=6;overflow=hidden;whiteSpace=wrap;html=1;fontStyle=1" vertex="1" parent="1">
          <mxGeometry x="380" y="355" width="150" height="30" as="geometry">
            <mxRectangle width="150" height="30" as="alternateBounds" />
          </mxGeometry>
        </mxCell>
        <mxCell id="_Qt5D_Nw62uMa89O4eSB-50" value="&lt;div&gt;due_date&lt;/div&gt;" style="shape=partialRectangle;connectable=0;fillColor=none;top=0;left=0;bottom=0;right=0;align=left;spacingLeft=6;overflow=hidden;whiteSpace=wrap;html=1;fontStyle=1" vertex="1" parent="1">
          <mxGeometry x="380" y="385" width="150" height="30" as="geometry">
            <mxRectangle width="150" height="30" as="alternateBounds" />
          </mxGeometry>
        </mxCell>
        <mxCell id="_Qt5D_Nw62uMa89O4eSB-51" value="&lt;div&gt;sales_amount&lt;/div&gt;" style="shape=partialRectangle;connectable=0;fillColor=none;top=0;left=0;bottom=0;right=0;align=left;spacingLeft=6;overflow=hidden;whiteSpace=wrap;html=1;fontStyle=1" vertex="1" parent="1">
          <mxGeometry x="380" y="415" width="150" height="30" as="geometry">
            <mxRectangle width="150" height="30" as="alternateBounds" />
          </mxGeometry>
        </mxCell>
        <mxCell id="_Qt5D_Nw62uMa89O4eSB-52" value="&lt;div&gt;quantity&lt;/div&gt;" style="shape=partialRectangle;connectable=0;fillColor=none;top=0;left=0;bottom=0;right=0;align=left;spacingLeft=6;overflow=hidden;whiteSpace=wrap;html=1;fontStyle=1" vertex="1" parent="1">
          <mxGeometry x="380" y="445" width="150" height="30" as="geometry">
            <mxRectangle width="150" height="30" as="alternateBounds" />
          </mxGeometry>
        </mxCell>
        <mxCell id="_Qt5D_Nw62uMa89O4eSB-55" value="&lt;div&gt;order_date&lt;/div&gt;" style="shape=partialRectangle;connectable=0;fillColor=none;top=0;left=0;bottom=0;right=0;align=left;spacingLeft=6;overflow=hidden;whiteSpace=wrap;html=1;fontStyle=1" vertex="1" parent="1">
          <mxGeometry x="380" y="325" width="150" height="30" as="geometry">
            <mxRectangle width="150" height="30" as="alternateBounds" />
          </mxGeometry>
        </mxCell>
        <mxCell id="_Qt5D_Nw62uMa89O4eSB-56" value="&lt;font style=&quot;color: rgb(26, 26, 26);&quot;&gt;gold.fact_sales&lt;/font&gt;" style="shape=table;startSize=35;container=1;collapsible=1;childLayout=tableLayout;fixedRows=1;rowLines=0;fontStyle=1;align=center;resizeLast=1;html=1;fillColor=#b1ddf0;strokeColor=#10739e;resizeLastRow=1;miterlimit=10;rounded=1;" vertex="1" parent="1">
          <mxGeometry x="350" y="205" width="180" height="305" as="geometry" />
        </mxCell>
        <mxCell id="_Qt5D_Nw62uMa89O4eSB-57" value="" style="shape=tableRow;horizontal=0;startSize=0;swimlaneHead=0;swimlaneBody=0;fillColor=none;collapsible=0;dropTarget=0;points=[[0,0.5],[1,0.5]];portConstraint=eastwest;top=0;left=0;right=0;bottom=1;resizeLastRow=1;miterlimit=10;fontStyle=1" vertex="1" parent="_Qt5D_Nw62uMa89O4eSB-56">
          <mxGeometry y="35" width="180" height="30" as="geometry" />
        </mxCell>
        <mxCell id="_Qt5D_Nw62uMa89O4eSB-58" value="" style="shape=partialRectangle;connectable=0;fillColor=none;top=0;left=0;bottom=0;right=0;fontStyle=1;overflow=hidden;whiteSpace=wrap;html=1;resizeLastRow=1;miterlimit=10;" vertex="1" parent="_Qt5D_Nw62uMa89O4eSB-57">
          <mxGeometry width="30" height="30" as="geometry">
            <mxRectangle width="30" height="30" as="alternateBounds" />
          </mxGeometry>
        </mxCell>
        <mxCell id="_Qt5D_Nw62uMa89O4eSB-59" value="order_number" style="shape=partialRectangle;connectable=0;fillColor=none;top=0;left=0;bottom=0;right=0;align=left;spacingLeft=6;fontStyle=5;overflow=hidden;whiteSpace=wrap;html=1;resizeLastRow=1;miterlimit=10;" vertex="1" parent="_Qt5D_Nw62uMa89O4eSB-57">
          <mxGeometry x="30" width="150" height="30" as="geometry">
            <mxRectangle width="150" height="30" as="alternateBounds" />
          </mxGeometry>
        </mxCell>
        <mxCell id="_Qt5D_Nw62uMa89O4eSB-60" value="" style="shape=tableRow;horizontal=0;startSize=0;swimlaneHead=0;swimlaneBody=0;fillColor=none;collapsible=0;dropTarget=0;points=[[0,0.5],[1,0.5]];portConstraint=eastwest;top=0;left=0;right=0;bottom=0;resizeLastRow=1;miterlimit=10;fontStyle=1" vertex="1" parent="_Qt5D_Nw62uMa89O4eSB-56">
          <mxGeometry y="65" width="180" height="30" as="geometry" />
        </mxCell>
        <mxCell id="_Qt5D_Nw62uMa89O4eSB-61" value="FK1" style="shape=partialRectangle;connectable=0;fillColor=none;top=0;left=0;bottom=0;right=0;editable=1;overflow=hidden;whiteSpace=wrap;html=1;resizeLastRow=1;miterlimit=10;fontStyle=1" vertex="1" parent="_Qt5D_Nw62uMa89O4eSB-60">
          <mxGeometry width="30" height="30" as="geometry">
            <mxRectangle width="30" height="30" as="alternateBounds" />
          </mxGeometry>
        </mxCell>
        <mxCell id="_Qt5D_Nw62uMa89O4eSB-62" value="product_key" style="shape=partialRectangle;connectable=0;fillColor=none;top=0;left=0;bottom=0;right=0;align=left;spacingLeft=6;overflow=hidden;whiteSpace=wrap;html=1;resizeLastRow=1;miterlimit=10;fontStyle=1" vertex="1" parent="_Qt5D_Nw62uMa89O4eSB-60">
          <mxGeometry x="30" width="150" height="30" as="geometry">
            <mxRectangle width="150" height="30" as="alternateBounds" />
          </mxGeometry>
        </mxCell>
        <mxCell id="_Qt5D_Nw62uMa89O4eSB-63" value="" style="shape=tableRow;horizontal=0;startSize=0;swimlaneHead=0;swimlaneBody=0;fillColor=none;collapsible=0;dropTarget=0;points=[[0,0.5],[1,0.5]];portConstraint=eastwest;top=0;left=0;right=0;bottom=0;resizeLastRow=1;miterlimit=10;fontStyle=1" vertex="1" parent="_Qt5D_Nw62uMa89O4eSB-56">
          <mxGeometry y="95" width="180" height="30" as="geometry" />
        </mxCell>
        <mxCell id="_Qt5D_Nw62uMa89O4eSB-64" value="FK2" style="shape=partialRectangle;connectable=0;fillColor=none;top=0;left=0;bottom=0;right=0;editable=1;overflow=hidden;whiteSpace=wrap;html=1;resizeLastRow=1;miterlimit=10;fontStyle=1" vertex="1" parent="_Qt5D_Nw62uMa89O4eSB-63">
          <mxGeometry width="30" height="30" as="geometry">
            <mxRectangle width="30" height="30" as="alternateBounds" />
          </mxGeometry>
        </mxCell>
        <mxCell id="_Qt5D_Nw62uMa89O4eSB-65" value="customer_key" style="shape=partialRectangle;connectable=0;fillColor=none;top=0;left=0;bottom=0;right=0;align=left;spacingLeft=6;overflow=hidden;whiteSpace=wrap;html=1;resizeLastRow=1;miterlimit=10;fontStyle=1" vertex="1" parent="_Qt5D_Nw62uMa89O4eSB-63">
          <mxGeometry x="30" width="150" height="30" as="geometry">
            <mxRectangle width="150" height="30" as="alternateBounds" />
          </mxGeometry>
        </mxCell>
        <mxCell id="_Qt5D_Nw62uMa89O4eSB-66" value="" style="shape=tableRow;horizontal=0;startSize=0;swimlaneHead=0;swimlaneBody=0;fillColor=none;collapsible=0;dropTarget=0;points=[[0,0.5],[1,0.5]];portConstraint=eastwest;top=0;left=0;right=0;bottom=0;resizeLastRow=1;miterlimit=10;fontStyle=1" vertex="1" parent="_Qt5D_Nw62uMa89O4eSB-56">
          <mxGeometry y="125" width="180" height="180" as="geometry" />
        </mxCell>
        <mxCell id="_Qt5D_Nw62uMa89O4eSB-67" value="" style="shape=partialRectangle;connectable=0;fillColor=none;top=0;left=0;bottom=0;right=0;editable=1;overflow=hidden;whiteSpace=wrap;html=1;resizeLastRow=1;miterlimit=10;fontStyle=1" vertex="1" parent="_Qt5D_Nw62uMa89O4eSB-66">
          <mxGeometry width="30" height="180" as="geometry">
            <mxRectangle width="30" height="180" as="alternateBounds" />
          </mxGeometry>
        </mxCell>
        <mxCell id="_Qt5D_Nw62uMa89O4eSB-68" value="" style="shape=partialRectangle;connectable=0;fillColor=none;top=0;left=0;bottom=0;right=0;align=left;spacingLeft=6;overflow=hidden;whiteSpace=wrap;html=1;resizeLastRow=1;miterlimit=10;allowArrows=0;fontStyle=1" vertex="1" parent="_Qt5D_Nw62uMa89O4eSB-66">
          <mxGeometry x="30" width="150" height="180" as="geometry">
            <mxRectangle width="150" height="180" as="alternateBounds" />
          </mxGeometry>
        </mxCell>
        <mxCell id="_Qt5D_Nw62uMa89O4eSB-69" value="&lt;div&gt;price&lt;/div&gt;" style="shape=partialRectangle;connectable=0;fillColor=none;top=0;left=0;bottom=0;right=0;align=left;spacingLeft=6;overflow=hidden;whiteSpace=wrap;html=1;fontStyle=1" vertex="1" parent="1">
          <mxGeometry x="380" y="475" width="150" height="30" as="geometry">
            <mxRectangle width="150" height="30" as="alternateBounds" />
          </mxGeometry>
        </mxCell>
        <mxCell id="_Qt5D_Nw62uMa89O4eSB-70" value="" style="edgeStyle=entityRelationEdgeStyle;fontSize=12;html=1;endArrow=ERzeroToMany;startArrow=ERzeroToOne;rounded=0;exitX=1;exitY=0.5;exitDx=0;exitDy=0;" edge="1" parent="1" source="_Qt5D_Nw62uMa89O4eSB-2">
          <mxGeometry width="100" height="100" relative="1" as="geometry">
            <mxPoint x="250" y="415" as="sourcePoint" />
            <mxPoint x="350" y="315" as="targetPoint" />
          </mxGeometry>
        </mxCell>
        <mxCell id="_Qt5D_Nw62uMa89O4eSB-71" value="" style="edgeStyle=entityRelationEdgeStyle;fontSize=12;html=1;endArrow=ERzeroToMany;startArrow=ERzeroToOne;rounded=0;exitX=0;exitY=0.5;exitDx=0;exitDy=0;entryX=1;entryY=0.5;entryDx=0;entryDy=0;" edge="1" parent="1" source="_Qt5D_Nw62uMa89O4eSB-31" target="_Qt5D_Nw62uMa89O4eSB-60">
          <mxGeometry width="100" height="100" relative="1" as="geometry">
            <mxPoint x="550" y="310" as="sourcePoint" />
            <mxPoint x="640" y="385" as="targetPoint" />
            <Array as="points">
              <mxPoint x="570" y="290" />
            </Array>
          </mxGeometry>
        </mxCell>
      </root>
    </mxGraphModel>
  </diagram>
</mxfile>
